<?xml version="1.0" encoding="iso-8859-1"?>
<!-- Generator: Adobe Illustrator 16.0.0, SVG Export Plug-In . SVG Version: 6.00 Build 0)  -->
<!DOCTYPE svg PUBLIC "-//W3C//DTD SVG 1.1//EN" "http://www.w3.org/Graphics/SVG/1.1/DTD/svg11.dtd">
<svg version="1.1" id="Capa_1" xmlns="http://www.w3.org/2000/svg" xmlns:xlink="http://www.w3.org/1999/xlink" x="0px" y="0px"
	 width="97.75px" height="97.75px" viewBox="0 0 97.75 97.75" style="enable-background:new 0 0 97.75 97.75;" xml:space="preserve"
	>
<g>
	<path d="M48.875,0C21.883,0,0,21.882,0,48.875S21.883,97.75,48.875,97.75S97.75,75.868,97.75,48.875S75.867,0,48.875,0z
		 M36.912,64.17l0.006-20.496c-2.891,0-5.045,0-7.646,0c0-3.322,0-6.252,0-9.574c5.777-1.646,10.762-7.786,12.598-14.292
		c0.705-2.834,0.779-4.757,0.779-4.757s8.857,0,10.863,0c0,5.862,0,11.732,0,17.458c4.346,0,8.41,0,12.705,0v11.017
		c-4.064,0-8.209,0-12.775,0c0,2.207,0,4.49,0,6.378c0.002,4.281-0.016,8.564,0.006,12.847c0,11.349,10.9,6.688,11.894,6.472
		l3.14,10.362C65.764,82.46,36.912,89.477,36.912,64.17z"/>
</g>
<g>
</g>
<g>
</g>
<g>
</g>
<g>
</g>
<g>
</g>
<g>
</g>
<g>
</g>
<g>
</g>
<g>
</g>
<g>
</g>
<g>
</g>
<g>
</g>
<g>
</g>
<g>
</g>
<g>
</g>
</svg>
