<?xml version="1.0" encoding="iso-8859-1"?>
<!-- Generator: Adobe Illustrator 18.1.1, SVG Export Plug-In . SVG Version: 6.00 Build 0)  -->
<svg version="1.1" id="Capa_1" xmlns="http://www.w3.org/2000/svg" xmlns:xlink="http://www.w3.org/1999/xlink" x="0px" y="0px"
	 viewBox="0 0 96 96" style="enable-background:new 0 0 96 96;" xml:space="preserve">
<g>
	<path style="fill:#030104;" d="M58.822,47.261c-1.154-0.772-2.569-1.437-4.205-1.976c-1.616-0.532-3.443-1.024-5.432-1.462
		c-1.572-0.375-2.718-0.664-3.4-0.857c-0.667-0.191-1.332-0.455-1.978-0.791c-0.623-0.32-1.116-0.705-1.465-1.144
		c-0.33-0.415-0.49-0.896-0.49-1.472c0-0.939,0.498-1.732,1.523-2.424c1.063-0.718,2.496-1.081,4.257-1.081
		c1.897,0,3.277,0.328,4.103,0.975c0.85,0.665,1.592,1.608,2.205,2.808c0.528,0.938,1.006,1.59,1.466,2.008
		c0.495,0.449,1.208,0.68,2.118,0.68c1,0,1.85-0.365,2.523-1.085c0.669-0.716,1.008-1.536,1.008-2.44
		c0-0.938-0.259-1.91-0.768-2.885c-0.506-0.964-1.309-1.894-2.39-2.762c-1.072-0.863-2.438-1.564-4.058-2.083
		c-1.61-0.515-3.541-0.776-5.734-0.776c-2.745,0-5.171,0.394-7.211,1.169c-2.066,0.786-3.67,1.933-4.769,3.407
		c-1.108,1.485-1.669,3.207-1.669,5.117c0,2.003,0.535,3.709,1.59,5.065c1.04,1.339,2.46,2.409,4.222,3.18
		c1.723,0.753,3.889,1.421,6.44,1.983c1.875,0.403,3.392,0.789,4.509,1.148c1.069,0.344,1.953,0.844,2.622,1.487
		c0.638,0.616,0.949,1.399,0.949,2.398c0,1.263-0.596,2.294-1.819,3.154c-1.253,0.88-2.918,1.327-4.949,1.327
		c-1.478,0-2.678-0.221-3.569-0.654c-0.885-0.432-1.579-0.982-2.061-1.639c-0.501-0.684-0.977-1.549-1.412-2.576
		c-0.39-0.941-0.874-1.672-1.44-2.165c-0.592-0.515-1.321-0.775-2.164-0.775c-1.029,0-1.892,0.33-2.565,0.981
		c-0.68,0.658-1.025,1.461-1.025,2.387c0,1.482,0.529,3.02,1.573,4.568c1.034,1.534,2.395,2.777,4.046,3.694
		c2.31,1.261,5.269,1.899,8.798,1.899c2.939,0,5.523-0.468,7.679-1.389c2.176-0.931,3.855-2.242,4.992-3.896
		c1.141-1.663,1.72-3.561,1.72-5.643c0-1.742-0.336-3.24-1-4.453C60.931,49.062,59.999,48.049,58.822,47.261z M48,0
		C21.489,0,0,21.49,0,48c0,26.511,21.489,48,48,48s48-21.489,48-48C96,21.49,74.511,0,48,0z M59.505,74.881
		c-2.438,0-4.731-0.632-6.736-1.74c-1.458,0.278-2.962,0.425-4.5,0.425c-13.57,0-24.572-11.32-24.572-25.283
		c0-1.742,0.172-3.442,0.498-5.084c-1.243-2.177-1.959-4.71-1.959-7.416c0-8.097,6.38-14.662,14.25-14.662
		c2.788,0,5.385,0.826,7.582,2.25c1.366-0.242,2.77-0.37,4.201-0.37c13.572,0,24.573,11.32,24.573,25.282
		c0,1.862-0.198,3.677-0.568,5.425c0.947,1.962,1.481,4.173,1.481,6.513C73.754,68.315,67.375,74.881,59.505,74.881z"/>
</g>
<g>
</g>
<g>
</g>
<g>
</g>
<g>
</g>
<g>
</g>
<g>
</g>
<g>
</g>
<g>
</g>
<g>
</g>
<g>
</g>
<g>
</g>
<g>
</g>
<g>
</g>
<g>
</g>
<g>
</g>
</svg>
