<?xml version="1.0" encoding="iso-8859-1"?>
<!-- Generator: Adobe Illustrator 18.1.1, SVG Export Plug-In . SVG Version: 6.00 Build 0)  -->
<svg version="1.1" id="Capa_1" xmlns="http://www.w3.org/2000/svg" xmlns:xlink="http://www.w3.org/1999/xlink" x="0px" y="0px"
	 viewBox="0 0 16 16" style="enable-background:new 0 0 16 16;" xml:space="preserve">
<g>
	<path style="fill:#010002;" d="M8,0C3.582,0,0,3.582,0,8s3.582,8,8,8s8-3.582,8-8C16,3.581,12.418,0,8,0z M11.98,6.204l0.006,0.255
		c0,2.604-1.981,5.604-5.604,5.604c-1.112,0-2.147-0.326-3.019-0.885c0.154,0.018,0.311,0.028,0.47,0.028
		c0.923,0,1.772-0.315,2.446-0.843c-0.862-0.016-1.589-0.586-1.84-1.368C4.56,9.018,4.682,9.029,4.81,9.029
		c0.18,0,0.354-0.023,0.519-0.068c-0.901-0.182-1.58-0.977-1.58-1.931V7.005c0.266,0.148,0.569,0.236,0.892,0.247
		C4.113,6.899,3.765,6.296,3.765,5.613c0-0.361,0.097-0.699,0.266-0.99c0.971,1.192,2.423,1.976,4.06,2.058
		C8.057,6.537,8.04,6.386,8.04,6.232c0-1.087,0.882-1.969,1.97-1.969c0.566,0,1.078,0.239,1.438,0.622
		c0.448-0.089,0.87-0.253,1.251-0.478c-0.147,0.46-0.459,0.846-0.866,1.09c0.397-0.047,0.778-0.154,1.131-0.31
		C12.7,5.581,12.365,5.928,11.98,6.204z"/>
</g>
<g>
</g>
<g>
</g>
<g>
</g>
<g>
</g>
<g>
</g>
<g>
</g>
<g>
</g>
<g>
</g>
<g>
</g>
<g>
</g>
<g>
</g>
<g>
</g>
<g>
</g>
<g>
</g>
<g>
</g>
</svg>
